# xmcd
#
# Track frame offsets: 
#        150
#        20642
#        40572
#        55512
#        71315
#        96765
#        117237
#        132005
#        154775
#        174075
#
# Disc length: 2548 seconds
#
# Revision: 2
# Processed by: cddbd v1.5.2PL0 Copyright (c) Steve Scherf et al.
# Submitted via: ExactAudioCopy v0.99pb4
#
DISCID=6e09f20a
DTITLE=The Charlie Daniels Band - Powder Keg
DYEAR=1987
DGENRE=Country
TTITLE0=Bogged Down In Love With You
TTITLE1=Bottom Line
TTITLE2=Love Pouring Out Of Me
TTITLE3=Saturday Night U.S.A.
TTITLE4=Dance With Me
TTITLE5=Powder Keg
TTITLE6=What She Do To Me
TTITLE7=Trapped In The City
TTITLE8=Stay With Me
TTITLE9=Juanita
EXTD=
EXTT0=
EXTT1=
EXTT2=
EXTT3=
EXTT4=
EXTT5=
EXTT6=
EXTT7=
EXTT8=
EXTT9=
PLAYORDER=
